<svg xmlns='http://www.w3.org/2000/svg' viewBox='0 0 2000 1000' preserveAspectRatio='xMidYMid slice'>
<g class='world-map' fill='none' stroke='#00ff41' stroke-width='1.2' stroke-linejoin='round' stroke-linecap='round'>
<path data-region="north_america" d="M66.7 138.9 L111.1 111.1 L194.4 111.1 L277.8 111.1 L361.1 94.4 L444.4 94.4 L500.0 105.6 L566.7 94.4 L600.0 66.7 L666.7 44.4 L750.0 38.9 L833.3 38.9 L861.1 66.7 L805.6 111.1 L722.2 138.9 L694.4 205.6 L666.7 238.9 L627.8 250.0 L611.1 266.7 L588.9 277.8 L577.8 294.4 L555.6 322.2 L544.4 350.0 L555.6 361.1 L538.9 366.7 L522.2 377.8 L500.0 383.3 L477.8 400.0 L461.1 405.6 L416.7 388.9 L361.1 333.3 L333.3 305.6 L311.1 272.2 L305.6 233.3 L277.8 200.0 L250.0 177.8 L166.7 166.7 L111.1 166.7 L66.7 138.9 Z"/>
<path data-region="south_america" d="M555.6 444.4 L566.7 455.6 L583.3 466.7 L600.0 438.9 L633.3 438.9 L666.7 455.6 L711.1 472.2 L722.2 500.0 L744.4 505.6 L777.8 516.7 L805.6 527.8 L805.6 555.6 L794.4 583.3 L777.8 622.2 L761.1 627.8 L733.3 655.6 L694.4 688.9 L677.8 711.1 L655.6 733.3 L633.3 750.0 L611.1 777.8 L600.0 800.0 L616.7 805.6 L600.0 788.9 L588.9 766.7 L600.0 733.3 L605.6 700.0 L605.6 677.8 L605.6 638.9 L611.1 611.1 L600.0 594.4 L572.2 555.6 L561.1 527.8 L555.6 500.0 L566.7 483.3 L555.6 461.1 L555.6 444.4 Z"/>
<path data-region="europe" d="M950.0 300.0 L950.0 261.1 L994.4 255.6 L1016.7 261.1 L1044.4 255.6 L1066.7 250.0 L1072.2 288.9 L1088.9 277.8 L1105.6 277.8 L1133.3 305.6 L1155.6 300.0 L1155.6 272.2 L1177.8 272.2 L1200.0 272.2 L1222.2 272.2 L1216.7 250.0 L1200.0 233.3 L1177.8 222.2 L1155.6 200.0 L1122.2 200.0 L1083.3 200.0 L1055.6 200.0 L1055.6 177.8 L1027.8 166.7 L1055.6 144.4 L1083.3 122.2 L1122.2 111.1 L1155.6 105.6 L1194.4 111.1 L1250.0 111.1 L1305.6 105.6 L1333.3 111.1 L1366.7 111.1 L1416.7 94.4 L1500.0 77.8 L1583.3 66.7 L1750.0 83.3 L1833.3 100.0 L1888.9 122.2 L1944.4 122.2 Z"/>
<path data-region="europe_west" d="M972.2 222.2 L983.3 205.6 L983.3 194.4 L972.2 177.8 L955.6 177.8 L944.4 200.0 L966.7 211.1 L944.4 216.7 L972.2 222.2 Z"/>
<path data-region="africa" d="M905.6 422.2 L905.6 377.8 L933.3 344.4 L972.2 322.2 L1027.8 316.7 L1066.7 316.7 L1111.1 322.2 L1138.9 327.8 L1177.8 327.8 L1188.9 327.8 L1194.4 350.0 L1211.1 377.8 L1222.2 400.0 L1238.9 433.3 L1283.3 433.3 L1283.3 477.8 L1250.0 500.0 L1233.3 527.8 L1222.2 555.6 L1222.2 588.9 L1211.1 622.2 L1177.8 650.0 L1155.6 683.3 L1122.2 688.9 L1100.0 688.9 L1083.3 683.3 L1072.2 638.9 L1066.7 588.9 L1066.7 544.4 L1050.0 511.1 L1027.8 477.8 L972.2 472.2 L950.0 472.2 L927.8 455.6 L905.6 422.2 Z"/>
<path data-region="asia_main" d="M1222.2 272.2 L1250.0 288.9 L1288.9 333.3 L1311.1 355.6 L1344.4 361.1 L1377.8 372.2 L1400.0 394.4 L1422.2 450.0 L1444.4 427.8 L1488.9 377.8 L1511.1 377.8 L1527.8 411.1 L1555.6 427.8 L1577.8 444.4 L1583.3 377.8 L1600.0 383.3 L1633.3 377.8 L1677.8 333.3 L1677.8 288.9 L1711.1 288.9 L1711.1 261.1 L1733.3 261.1 L1733.3 233.3 L1777.8 222.2 L1822.2 200.0 L1861.1 183.3 L1888.9 166.7 L1944.4 138.9 L1972.2 122.2 Z"/>
<path data-region="australia" d="M1633.3 622.2 L1633.3 655.6 L1655.6 688.9 L1683.3 688.9 L1722.2 677.8 L1761.1 700.0 L1777.8 711.1 L1816.7 716.7 L1833.3 705.6 L1850.0 655.6 L1850.0 638.9 L1822.2 611.1 L1788.9 583.3 L1766.7 566.7 L1750.0 566.7 L1722.2 566.7 L1694.4 577.8 L1666.7 605.6 L1638.9 611.1 L1633.3 622.2 Z"/>
<path data-region="japan" d="M1722.2 316.7 L1733.3 311.1 L1766.7 305.6 L1783.3 283.3 L1783.3 250.0 L1805.6 255.6 L1777.8 272.2 L1766.7 300.0 L1750.0 311.1 L1733.3 316.7 L1722.2 316.7 Z"/>
<path data-region="uk" d="M988.9 222.2 L1005.6 216.7 L1011.1 205.6 L994.4 194.4 L983.3 177.8 L961.1 177.8 L966.7 194.4 L972.2 216.7 L988.9 222.2 Z"/>
<path data-region="greenland" d="M722.2 166.7 L750.0 138.9 L766.7 100.0 L833.3 77.8 L888.9 55.6 L861.1 38.9 L777.8 38.9 L694.4 55.6 L666.7 83.3 L677.8 122.2 L722.2 166.7 Z"/>
<path data-region="indonesia_1" d="M1527.8 466.7 L1544.4 477.8 L1583.3 500.0 L1600.0 516.7 L1638.9 544.4 L1666.7 555.6 L1694.4 544.4 L1722.2 516.7 L1750.0 500.0 L1766.7 511.1 L1766.7 544.4 L1733.3 544.4 L1694.4 544.4 L1655.6 538.9 L1611.1 544.4 L1583.3 533.3 L1555.6 516.7 L1527.8 466.7 Z"/>
</g>
</svg>
